<svg width="380" height="69" viewBox="0 0 380 69" fill="none" xmlns="http://www.w3.org/2000/svg">
<path d="M42.6502 34.1349L60.6601 53.9349C62.691 56.2046 63.7065 58.1159 63.7065 59.6689C63.7065 61.2218 62.5417 63.0435 60.2121 65.134C57.9422 67.2246 56.0008 68.2698 54.388 68.2698C52.8349 68.2698 51.013 67.0752 48.9223 64.6861L31.8981 45.1548L14.8738 64.6861C12.7234 67.0752 10.8716 68.2698 9.31853 68.2698C7.82518 68.2698 5.88382 67.2246 3.49445 65.134C1.16482 62.9838 0 61.1621 0 59.6689C0 58.1757 1.04535 56.2643 3.13604 53.9349L21.1459 34.1349L3.13604 14.3349C1.04535 12.1249 0 10.2435 0 8.69051C0 7.13757 1.16482 5.31585 3.49445 3.22535C5.82408 1.07512 7.76544 0 9.31853 0C10.9314 0 12.7831 1.19457 14.8738 3.58372L31.8981 23.115L48.9223 3.58372C51.0727 1.19457 52.8946 0 54.388 0C55.9411 0 57.8824 1.04525 60.2121 3.13575C62.5417 5.22625 63.7065 7.07784 63.7065 8.69051C63.7065 10.3032 62.691 12.1846 60.6601 14.3349L42.6502 34.1349Z" fill="#2EFF4F"/>
<path d="M99.2936 27.7738H115.063C118.289 27.8933 120.26 28.7295 120.977 30.2824C121.574 31.4172 121.873 33.0896 121.873 35.2996V55.01C121.873 56.9214 121.037 58.7431 119.364 60.4752C114.347 65.6716 106.82 68.2698 96.7848 68.2698C87.8844 68.2698 80.1488 64.925 73.578 58.2354C67.0073 51.4861 63.7219 43.363 63.7219 33.8661C63.7219 24.3693 67.067 16.4552 73.7572 10.124C80.4475 3.73304 88.3324 0.537556 97.412 0.537556C104.461 0.537556 111.121 2.86697 117.393 7.5258C119.006 8.72038 119.812 10.0643 119.812 11.5575C119.812 12.991 119.125 14.6634 117.751 16.5747C115.422 19.7403 113.301 21.3231 111.39 21.3231C110.255 21.3231 108.433 20.5168 105.924 18.9041C103.415 17.2317 100.429 16.3955 96.964 16.3955C92.4242 16.3955 88.3921 18.0082 84.8678 21.2335C81.3435 24.3991 79.5813 28.5801 79.5813 33.7765C79.5813 38.9132 81.3734 43.3032 84.9574 46.9467C88.5415 50.5304 92.6034 52.3223 97.1432 52.3223C100.429 52.3223 103.385 51.7847 106.014 50.7096V40.944H98.9352C97.0834 40.944 95.7693 40.705 94.9927 40.2272C94.2162 39.7494 93.7085 39.0625 93.4695 38.1666C93.2306 37.2109 93.1111 35.9566 93.1111 34.4037C93.1111 32.791 93.2306 31.5068 93.4695 30.5512C93.7682 29.5955 94.2759 28.9385 94.9927 28.5801C96.068 28.0426 97.5016 27.7738 99.2936 27.7738Z" fill="#2EFF4F"/>
<path d="M166.931 6.36109L191.123 56.3539C192.138 58.3847 192.646 59.9078 192.646 60.9232C192.646 63.0734 190.914 65.0146 187.449 66.7467C185.418 67.7621 183.806 68.2698 182.611 68.2698C181.476 68.2698 180.52 68.001 179.744 67.4635C179.027 66.9259 178.489 66.3585 178.131 65.7612C177.832 65.1639 177.384 64.268 176.787 63.0734L172.128 53.3974H147.308L142.649 63.0734C142.051 64.268 141.574 65.134 141.215 65.6716C140.916 66.2092 140.379 66.7766 139.602 67.3739C138.885 67.9114 137.93 68.1802 136.735 68.1802C135.6 68.1802 134.017 67.6725 131.986 66.6571C128.522 64.9847 126.789 63.0734 126.789 60.9232C126.789 59.9078 127.297 58.3847 128.313 56.3539L152.505 6.2715C153.162 4.89775 154.148 3.79277 155.462 2.95657C156.836 2.12036 158.269 1.70226 159.763 1.70226C162.988 1.70226 165.378 3.25521 166.931 6.36109ZM159.673 27.8634L153.759 40.1376H165.676L159.673 27.8634Z" fill="#2EFF4F"/>
<path d="M267.342 4.21087C267.82 5.10679 268.089 5.91313 268.149 6.62988C268.268 7.34662 268.328 8.39187 268.328 9.76563V59.4897C268.328 63.611 267.193 66.03 264.923 66.7467C263.788 67.1051 262.354 67.2843 260.622 67.2843C258.89 67.2843 257.516 67.135 256.5 66.8363C255.485 66.5377 254.708 66.1793 254.171 65.7612C253.633 65.3431 253.215 64.7458 252.916 63.9693C252.618 62.954 252.468 61.401 252.468 59.3105V29.2969C250.975 31.1485 248.795 34.105 245.928 38.1666C243.06 42.1684 241.238 44.677 240.462 45.6924C239.685 46.7078 239.148 47.4245 238.849 47.8426C238.55 48.201 237.804 48.7385 236.609 49.4553C235.474 50.1123 234.22 50.4408 232.846 50.4408C231.532 50.4408 230.307 50.1422 229.172 49.5449C228.097 48.8879 227.32 48.2607 226.842 47.6634L226.126 46.6779C224.931 45.1847 222.571 42.0191 219.047 37.1811C215.523 32.2833 213.611 29.6553 213.313 29.2969V59.4897C213.313 60.8635 213.253 61.9087 213.133 62.6254C213.074 63.2825 212.805 64.0291 212.327 64.8653C211.431 66.4779 209.101 67.2843 205.338 67.2843C201.694 67.2843 199.424 66.4779 198.528 64.8653C198.051 64.0291 197.752 63.2526 197.632 62.5359C197.573 61.8191 197.543 60.744 197.543 59.3105V9.58644C197.543 8.21268 197.573 7.1973 197.632 6.54028C197.752 5.82354 198.051 5.0172 198.528 4.12127C199.424 2.56833 201.754 1.79186 205.517 1.79186C207.13 1.79186 208.504 2.00091 209.639 2.41901C210.834 2.77738 211.61 3.16562 211.969 3.58372L212.506 4.12127L232.846 30.82C243.001 17.381 249.78 8.51133 253.185 4.21087C254.201 2.59819 256.59 1.79186 260.353 1.79186C264.176 1.79186 266.506 2.59819 267.342 4.21087Z" fill="#2EFF4F"/>
<path d="M291.366 51.5159H318.963C320.337 51.5159 321.352 51.5757 322.009 51.6951C322.726 51.7548 323.533 52.0236 324.429 52.5014C326.042 53.3376 326.848 55.6671 326.848 59.4897C326.848 63.6707 325.743 66.1196 323.533 66.8363C322.517 67.1947 320.964 67.3739 318.873 67.3739H283.391C279.21 67.3739 276.761 66.239 276.044 63.9693C275.686 63.0137 275.506 61.4906 275.506 59.4001V9.58644C275.506 6.54028 276.074 4.47964 277.209 3.40453C278.344 2.26969 280.494 1.70226 283.66 1.70226H318.963C320.337 1.70226 321.352 1.76199 322.009 1.88145C322.726 1.94118 323.533 2.20996 324.429 2.68778C326.042 3.52399 326.848 5.8534 326.848 9.67603C326.848 13.857 325.743 16.3059 323.533 17.0227C322.517 17.381 320.964 17.5602 318.873 17.5602H291.366V26.6091H309.107C310.481 26.6091 311.496 26.6688 312.153 26.7883C312.87 26.848 313.677 27.1168 314.573 27.5946C316.185 28.4308 316.992 30.7602 316.992 34.5829C316.992 38.7639 315.857 41.2127 313.587 41.9295C312.571 42.2879 311.018 42.467 308.928 42.467H291.366V51.5159Z" fill="#2EFF4F"/>
<path d="M333.63 58.1458C332.077 56.2345 331.301 54.5322 331.301 53.039C331.301 51.4861 332.585 49.4553 335.154 46.9467C336.647 45.5132 338.23 44.7965 339.902 44.7965C341.575 44.7965 343.905 46.2897 346.891 49.2761C347.728 50.2915 348.922 51.277 350.475 52.2327C352.028 53.1286 353.462 53.5766 354.776 53.5766C360.332 53.5766 363.109 51.3069 363.109 46.7675C363.109 45.3937 362.333 44.2589 360.78 43.363C359.286 42.4073 357.405 41.7204 355.135 41.3023C352.865 40.8842 350.416 40.2272 347.787 39.3313C345.159 38.3756 342.71 37.2707 340.44 36.0163C338.17 34.7621 336.259 32.791 334.706 30.1032C333.212 27.3557 332.466 24.0706 332.466 20.248C332.466 14.9919 334.407 10.4226 338.29 6.54028C342.232 2.59819 347.578 0.627148 354.328 0.627148C357.912 0.627148 361.168 1.10498 364.095 2.06064C367.081 2.95657 369.142 3.88236 370.277 4.83802L372.517 6.54028C374.369 8.27241 375.295 9.73576 375.295 10.9303C375.295 12.1249 374.578 13.7674 373.145 15.8579C371.114 18.8444 369.023 20.3376 366.872 20.3376C365.618 20.3376 364.065 19.7403 362.213 18.5457C362.034 18.4263 361.676 18.1276 361.138 17.6498C360.66 17.172 360.212 16.7837 359.794 16.4851C358.539 15.7086 356.927 15.3204 354.955 15.3204C353.044 15.3204 351.431 15.7982 350.117 16.7539C348.863 17.6498 348.235 18.934 348.235 20.6064C348.235 22.219 348.982 23.5331 350.475 24.5485C352.028 25.5638 353.94 26.2507 356.21 26.6091C358.48 26.9675 360.959 27.5349 363.647 28.3114C366.335 29.0281 368.814 29.924 371.084 30.9991C373.354 32.0743 375.235 33.9557 376.729 36.6435C378.282 39.2716 379.058 42.5268 379.058 46.4091C379.058 50.2915 378.282 53.7259 376.729 56.7123C375.175 59.639 373.145 61.9087 370.636 63.5214C365.797 66.687 360.63 68.2698 355.135 68.2698C352.327 68.2698 349.669 67.9413 347.16 67.2843C344.651 66.5675 342.62 65.7015 341.067 64.6861C337.901 62.7748 335.691 60.9232 334.437 59.1313L333.63 58.1458Z" fill="#2EFF4F"/>
</svg>
