<svg width="460" height="83" viewBox="0 0 460 83" fill="none" xmlns="http://www.w3.org/2000/svg">
<path d="M51.7575 41.4279L73.613 65.4582C76.0777 68.2128 77.31 70.5325 77.31 72.4172C77.31 74.302 75.8965 76.5129 73.0694 79.05C70.3148 81.5872 67.9589 82.8557 66.0017 82.8557C64.1169 82.8557 61.906 81.4059 59.3689 78.5064L38.7094 54.8022L18.0499 78.5064C15.4403 81.4059 13.1931 82.8557 11.3084 82.8557C9.49612 82.8557 7.14021 81.5872 4.24063 79.05C1.41354 76.4404 0 74.2295 0 72.4172C0 70.605 1.26857 68.2853 3.8057 65.4582L25.6613 41.4279L3.8057 17.3975C1.26857 14.7154 0 12.432 0 10.5473C0 8.66252 1.41354 6.45158 4.24063 3.91445C7.06772 1.30482 9.42363 0 11.3084 0C13.2656 0 15.5127 1.4498 18.0499 4.34938L38.7094 28.0535L59.3689 4.34938C61.9785 1.4498 64.1894 0 66.0017 0C67.8864 0 70.2423 1.26857 73.0694 3.80571C75.8965 6.34285 77.31 8.59003 77.31 10.5473C77.31 12.5045 76.0777 14.7879 73.613 17.3975L51.7575 41.4279Z" fill="#E2E2E2"/>
<path d="M120.496 33.7077H139.633C143.548 33.8527 145.94 34.8675 146.81 36.7523C147.535 38.1296 147.897 40.1593 147.897 42.8414V66.763C147.897 69.0827 146.882 71.2936 144.853 73.3958C138.764 79.7024 129.63 82.8557 117.452 82.8557C106.651 82.8557 97.2633 78.7963 89.2895 70.6775C81.3156 62.4861 77.3287 52.6275 77.3287 41.1017C77.3287 29.5758 81.3881 19.9709 89.5069 12.287C97.6257 4.5306 107.194 0.652406 118.213 0.652406C126.767 0.652406 134.849 3.4795 142.46 9.1337C144.418 10.5835 145.396 12.2145 145.396 14.0268C145.396 15.7665 144.563 17.7962 142.895 20.1159C140.068 23.9579 137.495 25.8788 135.175 25.8788C133.798 25.8788 131.587 24.9002 128.542 22.943C125.498 20.9133 121.873 19.8984 117.669 19.8984C112.16 19.8984 107.267 21.8556 102.99 25.7701C98.7131 29.612 96.5746 34.6863 96.5746 40.9929C96.5746 47.227 98.7493 52.555 103.099 56.9769C107.448 61.3263 112.377 63.501 117.887 63.501C121.873 63.501 125.462 62.8486 128.651 61.5438V49.6917H120.061C117.814 49.6917 116.219 49.4017 115.277 48.8218C114.335 48.2419 113.718 47.4083 113.428 46.3209C113.138 45.1611 112.994 43.6388 112.994 41.7541C112.994 39.7969 113.138 38.2383 113.428 37.0785C113.791 35.9187 114.407 35.1213 115.277 34.6863C116.582 34.0339 118.321 33.7077 120.496 33.7077Z" fill="#E2E2E2"/>
<path d="M202.576 7.72015L231.934 68.394C233.167 70.8587 233.783 72.7072 233.783 73.9395C233.783 76.5491 231.681 78.9051 227.476 81.0073C225.012 82.2396 223.054 82.8557 221.605 82.8557C220.227 82.8557 219.067 82.5295 218.125 81.8771C217.255 81.2247 216.603 80.5361 216.168 79.8112C215.805 79.0863 215.262 77.9989 214.537 76.5491L208.883 64.8058H178.763L173.109 76.5491C172.384 77.9989 171.804 79.05 171.369 79.7024C171.007 80.3549 170.354 81.0435 169.412 81.7684C168.542 82.4208 167.382 82.747 165.933 82.747C164.555 82.747 162.634 82.1308 160.17 80.8985C155.965 78.8688 153.863 76.5491 153.863 73.9395C153.863 72.7072 154.479 70.8587 155.712 68.394L185.07 7.61142C185.867 5.94416 187.063 4.6031 188.658 3.58824C190.325 2.57338 192.065 2.06596 193.877 2.06596C197.792 2.06596 200.691 3.95069 202.576 7.72015ZM193.769 33.8165L186.592 48.7131H201.054L193.769 33.8165Z" fill="#E2E2E2"/>
<path d="M324.429 5.11052C325.009 6.19787 325.335 7.17648 325.407 8.04636C325.552 8.91624 325.625 10.1848 325.625 11.8521V72.1998C325.625 77.2015 324.248 80.1374 321.493 81.0073C320.116 81.4422 318.376 81.6597 316.274 81.6597C314.172 81.6597 312.504 81.4784 311.272 81.116C310.04 80.7535 309.097 80.3186 308.445 79.8112C307.793 79.3037 307.285 78.5788 306.923 77.6365C306.56 76.4042 306.379 74.5194 306.379 71.9823V35.5562C304.567 37.8034 301.921 41.3916 298.441 46.3209C294.962 51.1777 292.751 54.2223 291.809 55.4546C290.866 56.687 290.214 57.5568 289.851 58.0643C289.489 58.4992 288.583 59.1516 287.133 60.0215C285.756 60.8189 284.233 61.2176 282.566 61.2176C280.971 61.2176 279.485 60.8551 278.108 60.1302C276.803 59.3328 275.861 58.5717 275.281 57.8468L274.411 56.6507C272.961 54.8385 270.098 50.9965 265.821 45.1248C261.544 39.1807 259.225 35.9911 258.862 35.5562V72.1998C258.862 73.867 258.79 75.1356 258.645 76.0055C258.572 76.8028 258.246 77.709 257.666 78.7238C256.579 80.6811 253.752 81.6597 249.185 81.6597C244.763 81.6597 242.008 80.6811 240.921 78.7238C240.341 77.709 239.979 76.7666 239.834 75.8967C239.761 75.0269 239.725 73.722 239.725 71.9823V11.6346C239.725 9.96733 239.761 8.73501 239.834 7.93762C239.979 7.06775 240.341 6.08914 240.921 5.00179C242.008 3.11706 244.835 2.17469 249.402 2.17469C251.359 2.17469 253.027 2.4284 254.404 2.93583C255.854 3.37077 256.796 3.84195 257.231 4.34938L257.883 5.00179L282.566 37.4047C294.889 21.0945 303.117 10.3298 307.249 5.11052C308.481 3.1533 311.381 2.17469 315.948 2.17469C320.587 2.17469 323.414 3.1533 324.429 5.11052Z" fill="#E2E2E2"/>
<path d="M353.582 62.5224H387.072C388.74 62.5224 389.972 62.5949 390.769 62.7398C391.639 62.8123 392.618 63.1385 393.705 63.7185C395.662 64.7333 396.641 67.5604 396.641 72.1998C396.641 77.274 395.3 80.2461 392.618 81.116C391.386 81.5509 389.501 81.7684 386.964 81.7684H343.905C338.831 81.7684 335.859 80.3911 334.989 77.6365C334.554 76.4766 334.336 74.6282 334.336 72.091V11.6346C334.336 7.93762 335.025 5.43673 336.402 4.13191C337.78 2.75461 340.389 2.06596 344.231 2.06596H387.072C388.74 2.06596 389.972 2.13845 390.769 2.28343C391.639 2.35592 392.618 2.68212 393.705 3.26203C395.662 4.27689 396.641 7.10399 396.641 11.7433C396.641 16.8176 395.3 19.7897 392.618 20.6596C391.386 21.0945 389.501 21.312 386.964 21.312H353.582V32.2942H375.112C376.779 32.2942 378.011 32.3667 378.809 32.5116C379.679 32.5841 380.657 32.9103 381.744 33.4902C383.702 34.5051 384.68 37.3322 384.68 41.9715C384.68 47.0458 383.303 50.0179 380.548 50.8878C379.316 51.3227 377.431 51.5402 374.894 51.5402H353.582V62.5224Z" fill="#E2E2E2"/>
<path d="M404.872 70.5687C402.987 68.2491 402.045 66.1831 402.045 64.3709C402.045 62.4861 403.603 60.0215 406.72 56.9769C408.532 55.2372 410.453 54.3673 412.483 54.3673C414.513 54.3673 417.34 56.1795 420.964 59.804C421.979 61.0363 423.429 62.2324 425.314 63.3923C427.198 64.4796 428.938 65.0233 430.533 65.0233C437.275 65.0233 440.645 62.2687 440.645 56.7594C440.645 55.0922 439.703 53.7149 437.818 52.6275C436.006 51.4677 433.723 50.6341 430.968 50.1266C428.213 49.6192 425.241 48.8218 422.052 47.7345C418.862 46.5746 415.89 45.2336 413.136 43.7113C410.381 42.189 408.061 39.7969 406.177 36.5348C404.364 33.2003 403.458 29.2134 403.458 24.574C403.458 18.1949 405.814 12.6495 410.526 7.93762C415.31 3.1533 421.798 0.761139 429.989 0.761139C434.339 0.761139 438.289 1.34106 441.841 2.5009C445.466 3.58824 447.967 4.71183 449.344 5.87167L452.062 7.93762C454.31 10.0398 455.433 11.8158 455.433 13.2656C455.433 14.7154 454.563 16.7089 452.824 19.246C450.359 22.8705 447.822 24.6827 445.212 24.6827C443.69 24.6827 441.805 23.9578 439.558 22.5081C439.34 22.3631 438.906 22.0006 438.253 21.4207C437.673 20.8408 437.13 20.3696 436.622 20.0072C435.1 19.0648 433.143 18.5936 430.75 18.5936C428.431 18.5936 426.474 19.1735 424.879 20.3334C423.357 21.4207 422.595 22.9792 422.595 25.009C422.595 26.9662 423.502 28.5609 425.314 29.7933C427.198 31.0256 429.518 31.8592 432.273 32.2942C435.027 32.7291 438.036 33.4178 441.298 34.3601C444.56 35.23 447.568 36.3173 450.323 37.6222C453.077 38.927 455.361 41.2104 457.173 44.4724C459.058 47.662 460 51.6127 460 56.3245C460 61.0363 459.058 65.2045 457.173 68.829C455.288 72.381 452.823 75.1356 449.779 77.0928C443.907 80.9348 437.637 82.8557 430.968 82.8557C427.561 82.8557 424.335 82.4571 421.291 81.6597C418.246 80.7898 415.781 79.7387 413.897 78.5064C410.055 76.1867 407.373 73.9395 405.85 71.7648L404.872 70.5687Z" fill="#E2E2E2"/>
</svg>
